<svg viewBox="0 0 24 24" fill="none" xmlns="http://www.w3.org/2000/svg">
  <path d="M12 3.5c-4.7 0-8.5 3.8-8.5 8.5 0 3.8 2.4 7 5.8 8.1.4.1.6-.2.6-.4v-1.6c-2.4.5-2.9-1.1-2.9-1.1-.4-1-.9-1.2-.9-1.2-.8-.5.1-.5.1-.5.8.1 1.3.9 1.3.9.8 1.3 2 .9 2.4.7.1-.6.3-.9.6-1.2-1.9-.2-3.9-1-3.9-4.2 0-.9.3-1.7.9-2.3-.1-.2-.4-1.1.1-2.3 0 0 .8-.2 2.5 1 .7-.2 1.5-.3 2.3-.3s1.6.1 2.3.3c1.7-1.2 2.5-1 2.5-1 .5 1.2.2 2.1.1 2.3.6.6.9 1.4.9 2.3 0 3.2-2 4-3.9 4.2.3.3.6.8.6 1.6v2.4c0 .3.2.5.6.4 3.4-1.1 5.8-4.3 5.8-8.1 0-4.7-3.8-8.5-8.5-8.5Z" stroke="currentColor" stroke-width="1.3" stroke-linejoin="round"/>
</svg>
