<svg viewBox="0 0 24 24" fill="none" xmlns="http://www.w3.org/2000/svg">
  <path d="M12 3.5a8.4 8.4 0 0 0-7.2 12.7L4 20.5l4.4-1.1A8.4 8.4 0 1 0 12 3.5Z" stroke="currentColor" stroke-width="1.6" stroke-linejoin="round"/>
  <path d="M8.7 9.4c.3-.7.6-.7.9-.7h.5c.2 0 .4.1.5.4l.6 1.4c.1.2 0 .4-.1.6l-.4.5c-.1.2-.1.3 0 .5.4.7 1.4 1.6 2.1 2 .2.1.3.1.5 0l.5-.4c.2-.1.4-.2.6-.1l1.4.6c.3.1.4.3.4.5v.5c0 .3 0 .6-.7.9-.7.3-1.7.3-2.9-.2-1.6-.6-3.1-2.1-3.7-3.7-.5-1.2-.5-2.2-.2-2.9Z" stroke="currentColor" stroke-width="1.3" stroke-linejoin="round"/>
</svg>
